<svg xmlns="http://www.w3.org/2000/svg" viewBox="0 0 1400 520" preserveAspectRatio="xMidYMid slice">
<defs>
<linearGradient id="bg" x1="0%" y1="0%" x2="100%" y2="100%"><stop offset="0%" stop-color="#0f0c29"/><stop offset="50%" stop-color="#302b63"/><stop offset="100%" stop-color="#24243e"/></linearGradient>
<filter id="glow"><feGaussianBlur stdDeviation="6" result="b"/><feMerge><feMergeNode in="b"/><feMergeNode in="SourceGraphic"/></feMerge></filter>
<filter id="softglow"><feGaussianBlur stdDeviation="20" result="b"/><feMerge><feMergeNode in="b"/><feMergeNode in="SourceGraphic"/></feMerge></filter>
<radialGradient id="orb0"><stop offset="0%" stop-color="#dd44ff" stop-opacity="0.4"/><stop offset="100%" stop-color="#dd44ff" stop-opacity="0"/></radialGradient>
<radialGradient id="orb1"><stop offset="0%" stop-color="#ff00ea" stop-opacity="0.4"/><stop offset="100%" stop-color="#ff00ea" stop-opacity="0"/></radialGradient>
<radialGradient id="orb2"><stop offset="0%" stop-color="#ff6644" stop-opacity="0.4"/><stop offset="100%" stop-color="#ff6644" stop-opacity="0"/></radialGradient>
<radialGradient id="orb3"><stop offset="0%" stop-color="#ff00ea" stop-opacity="0.4"/><stop offset="100%" stop-color="#ff00ea" stop-opacity="0"/></radialGradient>
<radialGradient id="orb4"><stop offset="0%" stop-color="#dd44ff" stop-opacity="0.4"/><stop offset="100%" stop-color="#dd44ff" stop-opacity="0"/></radialGradient>
</defs>
<rect width="1400" height="520" fill="url(#bg)"/>
<circle cx="1126" cy="145" r="122" fill="url(#orb0)" filter="url(#softglow)"/>
<circle cx="930" cy="360" r="123" fill="url(#orb1)" filter="url(#softglow)"/>
<circle cx="394" cy="159" r="125" fill="url(#orb2)" filter="url(#softglow)"/>
<circle cx="381" cy="334" r="222" fill="url(#orb3)" filter="url(#softglow)"/>
<path d="M 0,369.5 Q 0,369.5 10.0,364.1 Q 20,358.7 30.0,354.2 Q 40,349.7 50.0,346.2 Q 60,342.7 70.0,340.3 Q 80,337.9 90.0,336.6 Q 100,335.4 110.0,335.3 Q 120,335.3 130.0,336.4 Q 140,337.6 150.0,339.9 Q 160,342.2 170.0,345.7 Q 180,349.1 190.0,353.5 Q 200,357.9 210.0,363.2 Q 220,368.5 230.0,374.4 Q 240,380.4 250.0,386.9 Q 260,393.4 270.0,400.3 Q 280,407.2 290.0,414.2 Q 300,421.2 310.0,428.2 Q 320,435.1 330.0,441.9 Q 340,448.7 350.0,455.1 Q 360,461.5 370.0,467.3 Q 380,473.2 390.0,478.4 Q 400,483.6 410.0,488.1 Q 420,492.6 430.0,496.2 Q 440,499.9 450.0,502.7 Q 460,505.5 470.0,507.5 Q 480,509.4 490.0,510.5 Q 500,511.6 510.0,511.9 Q 520,512.3 530.0,511.9 Q 540,511.5 550.0,510.4 Q 560,509.4 570.0,507.9 Q 580,506.3 590.0,504.3 Q 600,502.4 610.0,500.1 Q 620,497.8 630.0,495.4 Q 640,492.9 650.0,490.4 Q 660,487.8 670.0,485.3 Q 680,482.7 690.0,480.2 Q 700,477.8 710.0,475.4 Q 720,473.1 730.0,470.9 Q 740,468.8 750.0,466.8 Q 760,464.8 770.0,463.1 Q 780,461.3 790.0,459.7 Q 800,458.0 810.0,456.6 Q 820,455.1 830.0,453.6 Q 840,452.2 850.0,450.8 Q 860,449.4 870.0,447.9 Q 880,446.5 890.0,444.9 Q 900,443.3 910.0,441.5 Q 920,439.8 930.0,437.8 Q 940,435.8 950.0,433.5 Q 960,431.2 970.0,428.7 Q 980,426.1 990.0,423.3 Q 1000,420.4 1010.0,417.3 Q 1020,414.2 1030.0,410.8 Q 1040,407.5 1050.0,404.0 Q 1060,400.4 1070.0,396.9 Q 1080,393.3 1090.0,389.7 Q 1100,386.1 1110.0,382.7 Q 1120,379.2 1130.0,376.1 Q 1140,372.9 1150.0,370.1 Q 1160,367.3 1170.0,365.0 Q 1180,362.8 1190.0,361.2 Q 1200,359.5 1210.0,358.7 Q 1220,357.8 1230.0,357.8 Q 1240,357.7 1250.0,358.6 Q 1260,359.5 1270.0,361.3 Q 1280,363.1 1290.0,365.9 Q 1300,368.8 1310.0,372.5 Q 1320,376.3 1330.0,380.9 Q 1340,385.6 1350.0,391.0 Q 1360,396.5 1370.0,402.7 Q 1380,408.8 1390.0,415.6" fill="none" stroke="#ff6644" stroke-width="1.4" opacity="0.13" filter="url(#glow)"/>
<path d="M 0,369.5 Q 0,369.5 10.0,364.1 Q 20,358.7 30.0,354.2 Q 40,349.7 50.0,346.2 Q 60,342.7 70.0,340.3 Q 80,337.9 90.0,336.6 Q 100,335.4 110.0,335.3 Q 120,335.3 130.0,336.4 Q 140,337.6 150.0,339.9 Q 160,342.2 170.0,345.7 Q 180,349.1 190.0,353.5 Q 200,357.9 210.0,363.2 Q 220,368.5 230.0,374.4 Q 240,380.4 250.0,386.9 Q 260,393.4 270.0,400.3 Q 280,407.2 290.0,414.2 Q 300,421.2 310.0,428.2 Q 320,435.1 330.0,441.9 Q 340,448.7 350.0,455.1 Q 360,461.5 370.0,467.3 Q 380,473.2 390.0,478.4 Q 400,483.6 410.0,488.1 Q 420,492.6 430.0,496.2 Q 440,499.9 450.0,502.7 Q 460,505.5 470.0,507.5 Q 480,509.4 490.0,510.5 Q 500,511.6 510.0,511.9 Q 520,512.3 530.0,511.9 Q 540,511.5 550.0,510.4 Q 560,509.4 570.0,507.9 Q 580,506.3 590.0,504.3 Q 600,502.4 610.0,500.1 Q 620,497.8 630.0,495.4 Q 640,492.9 650.0,490.4 Q 660,487.8 670.0,485.3 Q 680,482.7 690.0,480.2 Q 700,477.8 710.0,475.4 Q 720,473.1 730.0,470.9 Q 740,468.8 750.0,466.8 Q 760,464.8 770.0,463.1 Q 780,461.3 790.0,459.7 Q 800,458.0 810.0,456.6 Q 820,455.1 830.0,453.6 Q 840,452.2 850.0,450.8 Q 860,449.4 870.0,447.9 Q 880,446.5 890.0,444.9 Q 900,443.3 910.0,441.5 Q 920,439.8 930.0,437.8 Q 940,435.8 950.0,433.5 Q 960,431.2 970.0,428.7 Q 980,426.1 990.0,423.3 Q 1000,420.4 1010.0,417.3 Q 1020,414.2 1030.0,410.8 Q 1040,407.5 1050.0,404.0 Q 1060,400.4 1070.0,396.9 Q 1080,393.3 1090.0,389.7 Q 1100,386.1 1110.0,382.7 Q 1120,379.2 1130.0,376.1 Q 1140,372.9 1150.0,370.1 Q 1160,367.3 1170.0,365.0 Q 1180,362.8 1190.0,361.2 Q 1200,359.5 1210.0,358.7 Q 1220,357.8 1230.0,357.8 Q 1240,357.7 1250.0,358.6 Q 1260,359.5 1270.0,361.3 Q 1280,363.1 1290.0,365.9 Q 1300,368.8 1310.0,372.5 Q 1320,376.3 1330.0,380.9 Q 1340,385.6 1350.0,391.0 Q 1360,396.5 1370.0,402.7 Q 1380,408.8 1390.0,415.6 L 1400,520 L 0,520 Z" fill="#ff6644" opacity="0.019"/>
<path d="M 0,36.4 Q 0,36.4 10.0,34.2 Q 20,31.9 30.0,30.1 Q 40,28.3 50.0,27.0 Q 60,25.7 70.0,25.0 Q 80,24.2 90.0,24.0 Q 100,23.8 110.0,24.2 Q 120,24.6 130.0,25.6 Q 140,26.6 150.0,28.1 Q 160,29.6 170.0,31.6 Q 180,33.6 190.0,36.1 Q 200,38.5 210.0,41.3 Q 220,44.1 230.0,47.1 Q 240,50.1 250.0,53.4 Q 260,56.6 270.0,59.9 Q 280,63.2 290.0,66.4 Q 300,69.7 310.0,72.9 Q 320,76.0 330.0,79.0 Q 340,81.9 350.0,84.6 Q 360,87.3 370.0,89.6 Q 380,92.0 390.0,93.9 Q 400,95.9 410.0,97.4 Q 420,99.0 430.0,100.1 Q 440,101.2 450.0,101.9 Q 460,102.6 470.0,102.9 Q 480,103.2 490.0,103.1 Q 500,103.0 510.0,102.5 Q 520,102.1 530.0,101.4 Q 540,100.6 550.0,99.7 Q 560,98.7 570.0,97.6 Q 580,96.4 590.0,95.2 Q 600,93.9 610.0,92.6 Q 620,91.3 630.0,90.0 Q 640,88.6 650.0,87.4 Q 660,86.1 670.0,84.9 Q 680,83.6 690.0,82.5 Q 700,81.4 710.0,80.4 Q 720,79.3 730.0,78.4 Q 740,77.5 750.0,76.7 Q 760,75.9 770.0,75.1 Q 780,74.4 790.0,73.7 Q 800,73.0 810.0,72.3 Q 820,71.6 830.0,71.0 Q 840,70.3 850.0,69.5 Q 860,68.8 870.0,68.0 Q 880,67.2 890.0,66.3 Q 900,65.4 910.0,64.4 Q 920,63.4 930.0,62.2 Q 940,61.1 950.0,59.8 Q 960,58.5 970.0,57.1 Q 980,55.8 990.0,54.3 Q 1000,52.8 1010.0,51.3 Q 1020,49.8 1030.0,48.3 Q 1040,46.8 1050.0,45.3 Q 1060,43.8 1070.0,42.5 Q 1080,41.1 1090.0,40.0 Q 1100,38.8 1110.0,37.8 Q 1120,36.9 1130.0,36.2 Q 1140,35.6 1150.0,35.3 Q 1160,35.0 1170.0,35.1 Q 1180,35.2 1190.0,35.7 Q 1200,36.2 1210.0,37.2 Q 1220,38.2 1230.0,39.6 Q 1240,41.0 1250.0,42.9 Q 1260,44.7 1270.0,47.0 Q 1280,49.3 1290.0,51.9 Q 1300,54.5 1310.0,57.5 Q 1320,60.4 1330.0,63.6 Q 1340,66.8 1350.0,70.1 Q 1360,73.4 1370.0,76.8 Q 1380,80.1 1390.0,83.5" fill="none" stroke="#ff00ea" stroke-width="1.3" opacity="0.10" filter="url(#glow)"/>
<path d="M 0,36.4 Q 0,36.4 10.0,34.2 Q 20,31.9 30.0,30.1 Q 40,28.3 50.0,27.0 Q 60,25.7 70.0,25.0 Q 80,24.2 90.0,24.0 Q 100,23.8 110.0,24.2 Q 120,24.6 130.0,25.6 Q 140,26.6 150.0,28.1 Q 160,29.6 170.0,31.6 Q 180,33.6 190.0,36.1 Q 200,38.5 210.0,41.3 Q 220,44.1 230.0,47.1 Q 240,50.1 250.0,53.4 Q 260,56.6 270.0,59.9 Q 280,63.2 290.0,66.4 Q 300,69.7 310.0,72.9 Q 320,76.0 330.0,79.0 Q 340,81.9 350.0,84.6 Q 360,87.3 370.0,89.6 Q 380,92.0 390.0,93.9 Q 400,95.9 410.0,97.4 Q 420,99.0 430.0,100.1 Q 440,101.2 450.0,101.9 Q 460,102.6 470.0,102.9 Q 480,103.2 490.0,103.1 Q 500,103.0 510.0,102.5 Q 520,102.1 530.0,101.4 Q 540,100.6 550.0,99.7 Q 560,98.7 570.0,97.6 Q 580,96.4 590.0,95.2 Q 600,93.9 610.0,92.6 Q 620,91.3 630.0,90.0 Q 640,88.6 650.0,87.4 Q 660,86.1 670.0,84.9 Q 680,83.6 690.0,82.5 Q 700,81.4 710.0,80.4 Q 720,79.3 730.0,78.4 Q 740,77.5 750.0,76.7 Q 760,75.9 770.0,75.1 Q 780,74.4 790.0,73.7 Q 800,73.0 810.0,72.3 Q 820,71.6 830.0,71.0 Q 840,70.3 850.0,69.5 Q 860,68.8 870.0,68.0 Q 880,67.2 890.0,66.3 Q 900,65.4 910.0,64.4 Q 920,63.4 930.0,62.2 Q 940,61.1 950.0,59.8 Q 960,58.5 970.0,57.1 Q 980,55.8 990.0,54.3 Q 1000,52.8 1010.0,51.3 Q 1020,49.8 1030.0,48.3 Q 1040,46.8 1050.0,45.3 Q 1060,43.8 1070.0,42.5 Q 1080,41.1 1090.0,40.0 Q 1100,38.8 1110.0,37.8 Q 1120,36.9 1130.0,36.2 Q 1140,35.6 1150.0,35.3 Q 1160,35.0 1170.0,35.1 Q 1180,35.2 1190.0,35.7 Q 1200,36.2 1210.0,37.2 Q 1220,38.2 1230.0,39.6 Q 1240,41.0 1250.0,42.9 Q 1260,44.7 1270.0,47.0 Q 1280,49.3 1290.0,51.9 Q 1300,54.5 1310.0,57.5 Q 1320,60.4 1330.0,63.6 Q 1340,66.8 1350.0,70.1 Q 1360,73.4 1370.0,76.8 Q 1380,80.1 1390.0,83.5 L 1400,520 L 0,520 Z" fill="#ff00ea" opacity="0.015"/>
<path d="M 0,231.4 Q 0,231.4 10.0,230.8 Q 20,230.2 30.0,228.9 Q 40,227.7 50.0,225.8 Q 60,223.9 70.0,221.5 Q 80,219.1 90.0,216.1 Q 100,213.2 110.0,209.8 Q 120,206.4 130.0,202.5 Q 140,198.7 150.0,194.5 Q 160,190.3 170.0,185.8 Q 180,181.3 190.0,176.5 Q 200,171.8 210.0,166.9 Q 220,161.9 230.0,156.9 Q 240,151.8 250.0,146.7 Q 260,141.6 270.0,136.5 Q 280,131.4 290.0,126.3 Q 300,121.2 310.0,116.3 Q 320,111.3 330.0,106.5 Q 340,101.7 350.0,97.0 Q 360,92.4 370.0,88.0 Q 380,83.6 390.0,79.4 Q 400,75.2 410.0,71.4 Q 420,67.5 430.0,63.9 Q 440,60.3 450.0,57.0 Q 460,53.7 470.0,50.7 Q 480,47.8 490.0,45.1 Q 500,42.4 510.0,40.1 Q 520,37.7 530.0,35.7 Q 540,33.6 550.0,31.8 Q 560,30.0 570.0,28.5 Q 580,27.0 590.0,25.7 Q 600,24.4 610.0,23.3 Q 620,22.2 630.0,21.3 Q 640,20.4 650.0,19.7 Q 660,18.9 670.0,18.3 Q 680,17.7 690.0,17.1 Q 700,16.6 710.0,16.1 Q 720,15.7 730.0,15.3 Q 740,14.8 750.0,14.4 Q 760,14.0 770.0,13.6 Q 780,13.2 790.0,12.7 Q 800,12.2 810.0,11.8 Q 820,11.3 830.0,10.7 Q 840,10.2 850.0,9.6 Q 860,9.0 870.0,8.3 Q 880,7.6 890.0,6.9 Q 900,6.2 910.0,5.4 Q 920,4.6 930.0,3.8 Q 940,3.0 950.0,2.2 Q 960,1.4 970.0,0.6 Q 980,-0.2 990.0,-1.0 Q 1000,-1.8 1010.0,-2.5 Q 1020,-3.2 1030.0,-3.9 Q 1040,-4.5 1050.0,-5.0 Q 1060,-5.5 1070.0,-5.8 Q 1080,-6.2 1090.0,-6.3 Q 1100,-6.5 1110.0,-6.4 Q 1120,-6.3 1130.0,-6.0 Q 1140,-5.6 1150.0,-5.0 Q 1160,-4.3 1170.0,-3.4 Q 1180,-2.4 1190.0,-1.1 Q 1200,0.2 1210.0,1.9 Q 1220,3.6 1230.0,5.7 Q 1240,7.8 1250.0,10.3 Q 1260,12.8 1270.0,15.7 Q 1280,18.6 1290.0,21.9 Q 1300,25.3 1310.0,29.0 Q 1320,32.7 1330.0,36.8 Q 1340,41.0 1350.0,45.5 Q 1360,50.0 1370.0,54.8 Q 1380,59.7 1390.0,64.8" fill="none" stroke="#ff00ea" stroke-width="1.4" opacity="0.19" filter="url(#glow)"/>
<path d="M 0,62.7 Q 0,62.7 10.0,65.4 Q 20,68.0 30.0,71.0 Q 40,73.9 50.0,77.2 Q 60,80.4 70.0,83.8 Q 80,87.2 90.0,90.8 Q 100,94.3 110.0,98.0 Q 120,101.6 130.0,105.2 Q 140,108.9 150.0,112.5 Q 160,116.1 170.0,119.5 Q 180,122.9 190.0,126.1 Q 200,129.4 210.0,132.3 Q 220,135.2 230.0,137.8 Q 240,140.3 250.0,142.5 Q 260,144.6 270.0,146.2 Q 280,147.9 290.0,149.0 Q 300,150.2 310.0,150.8 Q 320,151.4 330.0,151.4 Q 340,151.4 350.0,150.8 Q 360,150.2 370.0,149.1 Q 380,148.0 390.0,146.3 Q 400,144.6 410.0,142.3 Q 420,140.1 430.0,137.4 Q 440,134.7 450.0,131.6 Q 460,128.5 470.0,125.0 Q 480,121.5 490.0,117.8 Q 500,114.0 510.0,110.0 Q 520,106.1 530.0,102.0 Q 540,97.9 550.0,93.7 Q 560,89.6 570.0,85.5 Q 580,81.4 590.0,77.4 Q 600,73.4 610.0,69.6 Q 620,65.8 630.0,62.3 Q 640,58.8 650.0,55.6 Q 660,52.4 670.0,49.5 Q 680,46.7 690.0,44.3 Q 700,41.9 710.0,40.0 Q 720,38.0 730.0,36.5 Q 740,35.0 750.0,34.0 Q 760,33.0 770.0,32.5 Q 780,31.9 790.0,31.8 Q 800,31.7 810.0,32.1 Q 820,32.4 830.0,33.1 Q 840,33.8 850.0,34.9 Q 860,36.0 870.0,37.3 Q 880,38.7 890.0,40.3 Q 900,41.9 910.0,43.7 Q 920,45.5 930.0,47.5 Q 940,49.4 950.0,51.4 Q 960,53.5 970.0,55.5 Q 980,57.6 990.0,59.6 Q 1000,61.7 1010.0,63.6 Q 1020,65.6 1030.0,67.5 Q 1040,69.4 1050.0,71.2 Q 1060,73.0 1070.0,74.6 Q 1080,76.2 1090.0,77.7 Q 1100,79.2 1110.0,80.6 Q 1120,81.9 1130.0,83.1 Q 1140,84.3 1150.0,85.4 Q 1160,86.5 1170.0,87.5 Q 1180,88.4 1190.0,89.3 Q 1200,90.2 1210.0,91.0 Q 1220,91.8 1230.0,92.6 Q 1240,93.4 1250.0,94.1 Q 1260,94.9 1270.0,95.7 Q 1280,96.5 1290.0,97.3 Q 1300,98.1 1310.0,99.0 Q 1320,99.9 1330.0,100.9 Q 1340,101.9 1350.0,102.9 Q 1360,104.0 1370.0,105.1 Q 1380,106.3 1390.0,107.5" fill="none" stroke="#8844ff" stroke-width="2.0" opacity="0.25" filter="url(#glow)"/>
<path d="M 0,62.7 Q 0,62.7 10.0,65.4 Q 20,68.0 30.0,71.0 Q 40,73.9 50.0,77.2 Q 60,80.4 70.0,83.8 Q 80,87.2 90.0,90.8 Q 100,94.3 110.0,98.0 Q 120,101.6 130.0,105.2 Q 140,108.9 150.0,112.5 Q 160,116.1 170.0,119.5 Q 180,122.9 190.0,126.1 Q 200,129.4 210.0,132.3 Q 220,135.2 230.0,137.8 Q 240,140.3 250.0,142.5 Q 260,144.6 270.0,146.2 Q 280,147.9 290.0,149.0 Q 300,150.2 310.0,150.8 Q 320,151.4 330.0,151.4 Q 340,151.4 350.0,150.8 Q 360,150.2 370.0,149.1 Q 380,148.0 390.0,146.3 Q 400,144.6 410.0,142.3 Q 420,140.1 430.0,137.4 Q 440,134.7 450.0,131.6 Q 460,128.5 470.0,125.0 Q 480,121.5 490.0,117.8 Q 500,114.0 510.0,110.0 Q 520,106.1 530.0,102.0 Q 540,97.9 550.0,93.7 Q 560,89.6 570.0,85.5 Q 580,81.4 590.0,77.4 Q 600,73.4 610.0,69.6 Q 620,65.8 630.0,62.3 Q 640,58.8 650.0,55.6 Q 660,52.4 670.0,49.5 Q 680,46.7 690.0,44.3 Q 700,41.9 710.0,40.0 Q 720,38.0 730.0,36.5 Q 740,35.0 750.0,34.0 Q 760,33.0 770.0,32.5 Q 780,31.9 790.0,31.8 Q 800,31.7 810.0,32.1 Q 820,32.4 830.0,33.1 Q 840,33.8 850.0,34.9 Q 860,36.0 870.0,37.3 Q 880,38.7 890.0,40.3 Q 900,41.9 910.0,43.7 Q 920,45.5 930.0,47.5 Q 940,49.4 950.0,51.4 Q 960,53.5 970.0,55.5 Q 980,57.6 990.0,59.6 Q 1000,61.7 1010.0,63.6 Q 1020,65.6 1030.0,67.5 Q 1040,69.4 1050.0,71.2 Q 1060,73.0 1070.0,74.6 Q 1080,76.2 1090.0,77.7 Q 1100,79.2 1110.0,80.6 Q 1120,81.9 1130.0,83.1 Q 1140,84.3 1150.0,85.4 Q 1160,86.5 1170.0,87.5 Q 1180,88.4 1190.0,89.3 Q 1200,90.2 1210.0,91.0 Q 1220,91.8 1230.0,92.6 Q 1240,93.4 1250.0,94.1 Q 1260,94.9 1270.0,95.7 Q 1280,96.5 1290.0,97.3 Q 1300,98.1 1310.0,99.0 Q 1320,99.9 1330.0,100.9 Q 1340,101.9 1350.0,102.9 Q 1360,104.0 1370.0,105.1 Q 1380,106.3 1390.0,107.5 L 1400,520 L 0,520 Z" fill="#8844ff" opacity="0.037"/>
<circle cx="1368" cy="502" r="3.0" fill="#00ff88" opacity="0.38"/>
<circle cx="138" cy="63" r="1.6" fill="#ff00ea" opacity="0.22"/>
<circle cx="1196" cy="160" r="1.4" fill="#44ddff" opacity="0.23"/>
<circle cx="481" cy="44" r="1.6" fill="#8844ff" opacity="0.46"/>
<circle cx="570" cy="205" r="1.8" fill="#8844ff" opacity="0.54"/>
<circle cx="321" cy="97" r="3.8" fill="#ff00ea" opacity="0.52"/>
<circle cx="118" cy="152" r="2.7" fill="#00ff88" opacity="0.41"/>
<circle cx="1281" cy="176" r="2.7" fill="#8844ff" opacity="0.27"/>
<circle cx="418" cy="115" r="3.3" fill="#ff6644" opacity="0.50"/>
<circle cx="219" cy="132" r="2.5" fill="#dd44ff" opacity="0.43"/>
<circle cx="319" cy="385" r="2.2" fill="#8844ff" opacity="0.22"/>
<circle cx="1129" cy="5" r="3.0" fill="#ff00ea" opacity="0.24"/>
<circle cx="377" cy="509" r="2.2" fill="#00d4ff" opacity="0.56"/>
<circle cx="1279" cy="289" r="2.8" fill="#dd44ff" opacity="0.41"/>
<circle cx="572" cy="350" r="3.9" fill="#dd44ff" opacity="0.35"/>
<circle cx="1330" cy="160" r="2.1" fill="#00ff88" opacity="0.60"/>
<circle cx="83" cy="214" r="3.8" fill="#ff00ea" opacity="0.17"/>
<circle cx="692" cy="171" r="2.6" fill="#dd44ff" opacity="0.37"/>
<circle cx="869" cy="514" r="1.1" fill="#00ff88" opacity="0.58"/>
<circle cx="1019" cy="473" r="2.4" fill="#8844ff" opacity="0.46"/>
<circle cx="913" cy="36" r="2.1" fill="#44ddff" opacity="0.57"/>
<circle cx="323" cy="353" r="1.2" fill="#dd44ff" opacity="0.33"/>
<circle cx="1067" cy="170" r="2.7" fill="#ff6644" opacity="0.59"/>
<circle cx="95" cy="252" r="1.8" fill="#00d4ff" opacity="0.59"/>
<circle cx="891" cy="277" r="1.0" fill="#ff6644" opacity="0.41"/>
<circle cx="448" cy="24" r="2.5" fill="#00ff88" opacity="0.22"/>
<circle cx="1195" cy="289" r="1.5" fill="#44ddff" opacity="0.21"/>
<circle cx="162" cy="426" r="2.8" fill="#ff6644" opacity="0.23"/>
<circle cx="405" cy="365" r="3.9" fill="#ff00ea" opacity="0.20"/>
<circle cx="818" cy="391" r="2.5" fill="#ff00ea" opacity="0.29"/>
<line x1="1156" y1="297" x2="476" y2="316" stroke="#00d4ff" stroke-width="0.5" opacity="0.08"/>
<line x1="536" y1="462" x2="2" y2="292" stroke="#ff6644" stroke-width="0.5" opacity="0.08"/>
<line x1="1241" y1="181" x2="352" y2="462" stroke="#44ddff" stroke-width="0.5" opacity="0.07"/>
<line x1="1278" y1="8" x2="1036" y2="379" stroke="#ff6644" stroke-width="0.5" opacity="0.07"/>
<line x1="446" y1="163" x2="250" y2="438" stroke="#8844ff" stroke-width="0.5" opacity="0.06"/>
<line x1="23" y1="382" x2="160" y2="197" stroke="#ff00ea" stroke-width="0.5" opacity="0.09"/>
<polygon points="136,115 147,126 136,137 125,126" fill="none" stroke="#ff6644" stroke-width="1" opacity="0.27"/>
<polygon points="784,159 791,166 784,173 777,166" fill="none" stroke="#dd44ff" stroke-width="1" opacity="0.16"/>
<polygon points="1096,256 1103,263 1096,270 1089,263" fill="none" stroke="#ff6644" stroke-width="1" opacity="0.30"/>
<polygon points="749,289 754,294 749,299 744,294" fill="none" stroke="#ff00ea" stroke-width="1" opacity="0.12"/>
<polygon points="1212,428 1222,438 1212,448 1202,438" fill="none" stroke="#8844ff" stroke-width="1" opacity="0.23"/>
<polygon points="756,348 761,353 756,358 751,353" fill="none" stroke="#44ddff" stroke-width="1" opacity="0.10"/>
<polygon points="402,345 406,349 402,353 398,349" fill="none" stroke="#00d4ff" stroke-width="1" opacity="0.10"/>
<text x="1384" y="508" text-anchor="end" fill="rgba(255,255,255,0.12)" font-family="monospace" font-size="10">Generert 10.04.2026 kl. 19:00 UTC</text>
</svg>