<svg xmlns="http://www.w3.org/2000/svg" viewBox="0 0 1400 520" preserveAspectRatio="xMidYMid slice">
<defs>
<linearGradient id="bg" x1="0%" y1="0%" x2="100%" y2="100%"><stop offset="0%" stop-color="#0f0c29"/><stop offset="50%" stop-color="#302b63"/><stop offset="100%" stop-color="#24243e"/></linearGradient>
<filter id="glow"><feGaussianBlur stdDeviation="6" result="b"/><feMerge><feMergeNode in="b"/><feMergeNode in="SourceGraphic"/></feMerge></filter>
<filter id="softglow"><feGaussianBlur stdDeviation="20" result="b"/><feMerge><feMergeNode in="b"/><feMergeNode in="SourceGraphic"/></feMerge></filter>
<radialGradient id="orb0"><stop offset="0%" stop-color="#44ddff" stop-opacity="0.4"/><stop offset="100%" stop-color="#44ddff" stop-opacity="0"/></radialGradient>
<radialGradient id="orb1"><stop offset="0%" stop-color="#00d4ff" stop-opacity="0.4"/><stop offset="100%" stop-color="#00d4ff" stop-opacity="0"/></radialGradient>
<radialGradient id="orb2"><stop offset="0%" stop-color="#ff6644" stop-opacity="0.4"/><stop offset="100%" stop-color="#ff6644" stop-opacity="0"/></radialGradient>
<radialGradient id="orb3"><stop offset="0%" stop-color="#dd44ff" stop-opacity="0.4"/><stop offset="100%" stop-color="#dd44ff" stop-opacity="0"/></radialGradient>
<radialGradient id="orb4"><stop offset="0%" stop-color="#00d4ff" stop-opacity="0.4"/><stop offset="100%" stop-color="#00d4ff" stop-opacity="0"/></radialGradient>
</defs>
<rect width="1400" height="520" fill="url(#bg)"/>
<circle cx="565" cy="123" r="265" fill="url(#orb0)" filter="url(#softglow)"/>
<circle cx="296" cy="179" r="171" fill="url(#orb1)" filter="url(#softglow)"/>
<circle cx="1026" cy="385" r="175" fill="url(#orb2)" filter="url(#softglow)"/>
<path d="M 0,54.0 Q 0,54.0 10.0,55.1 Q 20,56.1 30.0,57.5 Q 40,58.8 50.0,60.5 Q 60,62.1 70.0,64.0 Q 80,65.9 90.0,68.0 Q 100,70.2 110.0,72.6 Q 120,75.0 130.0,77.5 Q 140,80.1 150.0,82.8 Q 160,85.6 170.0,88.4 Q 180,91.3 190.0,94.3 Q 200,97.2 210.0,100.2 Q 220,103.2 230.0,106.2 Q 240,109.2 250.0,112.1 Q 260,115.1 270.0,117.9 Q 280,120.8 290.0,123.5 Q 300,126.2 310.0,128.7 Q 320,131.2 330.0,133.6 Q 340,135.9 350.0,137.9 Q 360,140.0 370.0,141.8 Q 380,143.6 390.0,145.0 Q 400,146.5 410.0,147.6 Q 420,148.8 430.0,149.5 Q 440,150.3 450.0,150.8 Q 460,151.2 470.0,151.2 Q 480,151.3 490.0,151.0 Q 500,150.7 510.0,150.1 Q 520,149.4 530.0,148.5 Q 540,147.5 550.0,146.2 Q 560,144.9 570.0,143.3 Q 580,141.7 590.0,139.9 Q 600,138.0 610.0,136.0 Q 620,133.9 630.0,131.6 Q 640,129.4 650.0,127.0 Q 660,124.6 670.0,122.0 Q 680,119.5 690.0,116.9 Q 700,114.4 710.0,111.7 Q 720,109.1 730.0,106.5 Q 740,103.9 750.0,101.3 Q 760,98.8 770.0,96.3 Q 780,93.9 790.0,91.5 Q 800,89.1 810.0,86.9 Q 820,84.7 830.0,82.7 Q 840,80.7 850.0,78.8 Q 860,77.0 870.0,75.4 Q 880,73.7 890.0,72.3 Q 900,70.9 910.0,69.7 Q 920,68.5 930.0,67.6 Q 940,66.6 950.0,65.9 Q 960,65.1 970.0,64.6 Q 980,64.1 990.0,63.7 Q 1000,63.4 1010.0,63.3 Q 1020,63.1 1030.0,63.2 Q 1040,63.2 1050.0,63.4 Q 1060,63.6 1070.0,63.9 Q 1080,64.2 1090.0,64.6 Q 1100,65.0 1110.0,65.5 Q 1120,66.0 1130.0,66.6 Q 1140,67.2 1150.0,67.8 Q 1160,68.3 1170.0,69.0 Q 1180,69.6 1190.0,70.2 Q 1200,70.8 1210.0,71.5 Q 1220,72.1 1230.0,72.7 Q 1240,73.2 1250.0,73.8 Q 1260,74.4 1270.0,74.9 Q 1280,75.4 1290.0,75.9 Q 1300,76.4 1310.0,76.8 Q 1320,77.3 1330.0,77.7 Q 1340,78.1 1350.0,78.5 Q 1360,78.9 1370.0,79.3 Q 1380,79.7 1390.0,80.1" fill="none" stroke="#00ff88" stroke-width="1.9" opacity="0.15" filter="url(#glow)"/>
<path d="M 0,550.2 Q 0,550.2 10.0,543.4 Q 20,536.6 30.0,527.9 Q 40,519.3 50.0,509.2 Q 60,499.2 70.0,488.2 Q 80,477.3 90.0,465.9 Q 100,454.6 110.0,443.3 Q 120,432.0 130.0,421.3 Q 140,410.6 150.0,400.9 Q 160,391.1 170.0,382.6 Q 180,374.1 190.0,367.0 Q 200,359.9 210.0,354.4 Q 220,348.9 230.0,345.0 Q 240,341.1 250.0,338.7 Q 260,336.3 270.0,335.3 Q 280,334.2 290.0,334.3 Q 300,334.4 310.0,335.3 Q 320,336.3 330.0,337.9 Q 340,339.4 350.0,341.4 Q 360,343.3 370.0,345.3 Q 380,347.4 390.0,349.3 Q 400,351.3 410.0,353.1 Q 420,354.9 430.0,356.5 Q 440,358.1 450.0,359.4 Q 460,360.8 470.0,362.0 Q 480,363.2 490.0,364.4 Q 500,365.7 510.0,367.1 Q 520,368.5 530.0,370.4 Q 540,372.2 550.0,374.7 Q 560,377.1 570.0,380.4 Q 580,383.6 590.0,387.8 Q 600,392.0 610.0,397.3 Q 620,402.5 630.0,408.8 Q 640,415.0 650.0,422.3 Q 660,429.5 670.0,437.5 Q 680,445.6 690.0,454.2 Q 700,462.7 710.0,471.6 Q 720,480.4 730.0,489.0 Q 740,497.7 750.0,505.7 Q 760,513.8 770.0,520.9 Q 780,528.0 790.0,533.6 Q 800,539.2 810.0,543.1 Q 820,546.9 830.0,548.6 Q 840,550.3 850.0,549.7 Q 860,549.1 870.0,546.0 Q 880,542.9 890.0,537.3 Q 900,531.8 910.0,523.9 Q 920,516.0 930.0,506.0 Q 940,496.1 950.0,484.4 Q 960,472.7 970.0,459.7 Q 980,446.7 990.0,433.0 Q 1000,419.2 1010.0,405.3 Q 1020,391.4 1030.0,377.9 Q 1040,364.4 1050.0,351.8 Q 1060,339.2 1070.0,328.2 Q 1080,317.1 1090.0,307.9 Q 1100,298.8 1110.0,291.9 Q 1120,285.0 1130.0,280.7 Q 1140,276.3 1150.0,274.5 Q 1160,272.8 1170.0,273.6 Q 1180,274.5 1190.0,277.8 Q 1200,281.1 1210.0,286.6 Q 1220,292.1 1230.0,299.4 Q 1240,306.8 1250.0,315.6 Q 1260,324.4 1270.0,334.2 Q 1280,344.0 1290.0,354.2 Q 1300,364.5 1310.0,374.8 Q 1320,385.2 1330.0,395.1 Q 1340,405.0 1350.0,414.2 Q 1360,423.4 1370.0,431.5 Q 1380,439.6 1390.0,446.5" fill="none" stroke="#ff00ea" stroke-width="1.8" opacity="0.17" filter="url(#glow)"/>
<path d="M 0,550.2 Q 0,550.2 10.0,543.4 Q 20,536.6 30.0,527.9 Q 40,519.3 50.0,509.2 Q 60,499.2 70.0,488.2 Q 80,477.3 90.0,465.9 Q 100,454.6 110.0,443.3 Q 120,432.0 130.0,421.3 Q 140,410.6 150.0,400.9 Q 160,391.1 170.0,382.6 Q 180,374.1 190.0,367.0 Q 200,359.9 210.0,354.4 Q 220,348.9 230.0,345.0 Q 240,341.1 250.0,338.7 Q 260,336.3 270.0,335.3 Q 280,334.2 290.0,334.3 Q 300,334.4 310.0,335.3 Q 320,336.3 330.0,337.9 Q 340,339.4 350.0,341.4 Q 360,343.3 370.0,345.3 Q 380,347.4 390.0,349.3 Q 400,351.3 410.0,353.1 Q 420,354.9 430.0,356.5 Q 440,358.1 450.0,359.4 Q 460,360.8 470.0,362.0 Q 480,363.2 490.0,364.4 Q 500,365.7 510.0,367.1 Q 520,368.5 530.0,370.4 Q 540,372.2 550.0,374.7 Q 560,377.1 570.0,380.4 Q 580,383.6 590.0,387.8 Q 600,392.0 610.0,397.3 Q 620,402.5 630.0,408.8 Q 640,415.0 650.0,422.3 Q 660,429.5 670.0,437.5 Q 680,445.6 690.0,454.2 Q 700,462.7 710.0,471.6 Q 720,480.4 730.0,489.0 Q 740,497.7 750.0,505.7 Q 760,513.8 770.0,520.9 Q 780,528.0 790.0,533.6 Q 800,539.2 810.0,543.1 Q 820,546.9 830.0,548.6 Q 840,550.3 850.0,549.7 Q 860,549.1 870.0,546.0 Q 880,542.9 890.0,537.3 Q 900,531.8 910.0,523.9 Q 920,516.0 930.0,506.0 Q 940,496.1 950.0,484.4 Q 960,472.7 970.0,459.7 Q 980,446.7 990.0,433.0 Q 1000,419.2 1010.0,405.3 Q 1020,391.4 1030.0,377.9 Q 1040,364.4 1050.0,351.8 Q 1060,339.2 1070.0,328.2 Q 1080,317.1 1090.0,307.9 Q 1100,298.8 1110.0,291.9 Q 1120,285.0 1130.0,280.7 Q 1140,276.3 1150.0,274.5 Q 1160,272.8 1170.0,273.6 Q 1180,274.5 1190.0,277.8 Q 1200,281.1 1210.0,286.6 Q 1220,292.1 1230.0,299.4 Q 1240,306.8 1250.0,315.6 Q 1260,324.4 1270.0,334.2 Q 1280,344.0 1290.0,354.2 Q 1300,364.5 1310.0,374.8 Q 1320,385.2 1330.0,395.1 Q 1340,405.0 1350.0,414.2 Q 1360,423.4 1370.0,431.5 Q 1380,439.6 1390.0,446.5 L 1400,520 L 0,520 Z" fill="#ff00ea" opacity="0.026"/>
<path d="M 0,217.0 Q 0,217.0 10.0,211.6 Q 20,206.2 30.0,200.9 Q 40,195.6 50.0,190.5 Q 60,185.4 70.0,180.7 Q 80,175.9 90.0,171.6 Q 100,167.3 110.0,163.4 Q 120,159.6 130.0,156.5 Q 140,153.3 150.0,150.7 Q 160,148.2 170.0,146.4 Q 180,144.5 190.0,143.4 Q 200,142.3 210.0,142.0 Q 220,141.6 230.0,141.9 Q 240,142.3 250.0,143.3 Q 260,144.3 270.0,145.9 Q 280,147.5 290.0,149.7 Q 300,151.9 310.0,154.5 Q 320,157.2 330.0,160.2 Q 340,163.2 350.0,166.5 Q 360,169.9 370.0,173.4 Q 380,176.9 390.0,180.5 Q 400,184.1 410.0,187.7 Q 420,191.3 430.0,194.8 Q 440,198.3 450.0,201.7 Q 460,205.0 470.0,208.2 Q 480,211.3 490.0,214.2 Q 500,217.1 510.0,219.7 Q 520,222.3 530.0,224.5 Q 540,226.8 550.0,228.7 Q 560,230.6 570.0,232.2 Q 580,233.8 590.0,235.1 Q 600,236.4 610.0,237.5 Q 620,238.5 630.0,239.3 Q 640,240.0 650.0,240.6 Q 660,241.2 670.0,241.6 Q 680,242.1 690.0,242.4 Q 700,242.8 710.0,243.0 Q 720,243.3 730.0,243.6 Q 740,243.8 750.0,244.1 Q 760,244.4 770.0,244.7 Q 780,245.0 790.0,245.4 Q 800,245.8 810.0,246.2 Q 820,246.7 830.0,247.2 Q 840,247.7 850.0,248.2 Q 860,248.7 870.0,249.3 Q 880,249.8 890.0,250.3 Q 900,250.8 910.0,251.2 Q 920,251.7 930.0,252.0 Q 940,252.3 950.0,252.4 Q 960,252.5 970.0,252.4 Q 980,252.2 990.0,251.8 Q 1000,251.4 1010.0,250.6 Q 1020,249.9 1030.0,248.7 Q 1040,247.6 1050.0,246.1 Q 1060,244.5 1070.0,242.6 Q 1080,240.6 1090.0,238.2 Q 1100,235.8 1110.0,233.0 Q 1120,230.2 1130.0,226.9 Q 1140,223.7 1150.0,220.2 Q 1160,216.6 1170.0,212.8 Q 1180,208.9 1190.0,204.9 Q 1200,200.8 1210.0,196.6 Q 1220,192.4 1230.0,188.2 Q 1240,184.0 1250.0,179.8 Q 1260,175.6 1270.0,171.6 Q 1280,167.6 1290.0,163.9 Q 1300,160.1 1310.0,156.8 Q 1320,153.4 1330.0,150.6 Q 1340,147.7 1350.0,145.4 Q 1360,143.0 1370.0,141.4 Q 1380,139.7 1390.0,138.7" fill="none" stroke="#dd44ff" stroke-width="1.0" opacity="0.13" filter="url(#glow)"/>
<path d="M 0,560.3 Q 0,560.3 10.0,555.1 Q 20,549.9 30.0,543.5 Q 40,537.1 50.0,529.8 Q 60,522.4 70.0,514.3 Q 80,506.1 90.0,497.5 Q 100,488.9 110.0,479.9 Q 120,471.0 130.0,462.1 Q 140,453.1 150.0,444.4 Q 160,435.6 170.0,427.3 Q 180,418.9 190.0,411.2 Q 200,403.4 210.0,396.4 Q 220,389.3 230.0,383.2 Q 240,377.0 250.0,371.7 Q 260,366.5 270.0,362.2 Q 280,357.9 290.0,354.6 Q 300,351.3 310.0,348.9 Q 320,346.6 330.0,345.1 Q 340,343.6 350.0,342.9 Q 360,342.3 370.0,342.3 Q 380,342.3 390.0,342.9 Q 400,343.5 410.0,344.5 Q 420,345.5 430.0,346.9 Q 440,348.2 450.0,349.7 Q 460,351.3 470.0,352.9 Q 480,354.5 490.0,356.1 Q 500,357.7 510.0,359.3 Q 520,360.8 530.0,362.2 Q 540,363.6 550.0,364.8 Q 560,366.1 570.0,367.2 Q 580,368.3 590.0,369.3 Q 600,370.4 610.0,371.3 Q 620,372.3 630.0,373.3 Q 640,374.2 650.0,375.3 Q 660,376.4 670.0,377.7 Q 680,379.1 690.0,380.7 Q 700,382.3 710.0,384.3 Q 720,386.4 730.0,388.9 Q 740,391.4 750.0,394.5 Q 760,397.6 770.0,401.3 Q 780,405.0 790.0,409.4 Q 800,413.8 810.0,418.7 Q 820,423.7 830.0,429.3 Q 840,434.9 850.0,441.0 Q 860,447.1 870.0,453.6 Q 880,460.1 890.0,466.9 Q 900,473.7 910.0,480.7 Q 920,487.6 930.0,494.4 Q 940,501.3 950.0,507.9 Q 960,514.5 970.0,520.6 Q 980,526.8 990.0,532.2 Q 1000,537.7 1010.0,542.3 Q 1020,546.9 1030.0,550.5 Q 1040,554.0 1050.0,556.3 Q 1060,558.6 1070.0,559.6 Q 1080,560.6 1090.0,560.1 Q 1100,559.6 1110.0,557.6 Q 1120,555.7 1130.0,552.2 Q 1140,548.7 1150.0,543.7 Q 1160,538.7 1170.0,532.3 Q 1180,525.9 1190.0,518.2 Q 1200,510.6 1210.0,501.8 Q 1220,493.0 1230.0,483.3 Q 1240,473.6 1250.0,463.2 Q 1260,452.8 1270.0,442.0 Q 1280,431.2 1290.0,420.2 Q 1300,409.3 1310.0,398.4 Q 1320,387.6 1330.0,377.2 Q 1340,366.7 1350.0,357.0 Q 1360,347.2 1370.0,338.3 Q 1380,329.5 1390.0,321.8" fill="none" stroke="#00ff88" stroke-width="1.7" opacity="0.16" filter="url(#glow)"/>
<path d="M 0,560.3 Q 0,560.3 10.0,555.1 Q 20,549.9 30.0,543.5 Q 40,537.1 50.0,529.8 Q 60,522.4 70.0,514.3 Q 80,506.1 90.0,497.5 Q 100,488.9 110.0,479.9 Q 120,471.0 130.0,462.1 Q 140,453.1 150.0,444.4 Q 160,435.6 170.0,427.3 Q 180,418.9 190.0,411.2 Q 200,403.4 210.0,396.4 Q 220,389.3 230.0,383.2 Q 240,377.0 250.0,371.7 Q 260,366.5 270.0,362.2 Q 280,357.9 290.0,354.6 Q 300,351.3 310.0,348.9 Q 320,346.6 330.0,345.1 Q 340,343.6 350.0,342.9 Q 360,342.3 370.0,342.3 Q 380,342.3 390.0,342.9 Q 400,343.5 410.0,344.5 Q 420,345.5 430.0,346.9 Q 440,348.2 450.0,349.7 Q 460,351.3 470.0,352.9 Q 480,354.5 490.0,356.1 Q 500,357.7 510.0,359.3 Q 520,360.8 530.0,362.2 Q 540,363.6 550.0,364.8 Q 560,366.1 570.0,367.2 Q 580,368.3 590.0,369.3 Q 600,370.4 610.0,371.3 Q 620,372.3 630.0,373.3 Q 640,374.2 650.0,375.3 Q 660,376.4 670.0,377.7 Q 680,379.1 690.0,380.7 Q 700,382.3 710.0,384.3 Q 720,386.4 730.0,388.9 Q 740,391.4 750.0,394.5 Q 760,397.6 770.0,401.3 Q 780,405.0 790.0,409.4 Q 800,413.8 810.0,418.7 Q 820,423.7 830.0,429.3 Q 840,434.9 850.0,441.0 Q 860,447.1 870.0,453.6 Q 880,460.1 890.0,466.9 Q 900,473.7 910.0,480.7 Q 920,487.6 930.0,494.4 Q 940,501.3 950.0,507.9 Q 960,514.5 970.0,520.6 Q 980,526.8 990.0,532.2 Q 1000,537.7 1010.0,542.3 Q 1020,546.9 1030.0,550.5 Q 1040,554.0 1050.0,556.3 Q 1060,558.6 1070.0,559.6 Q 1080,560.6 1090.0,560.1 Q 1100,559.6 1110.0,557.6 Q 1120,555.7 1130.0,552.2 Q 1140,548.7 1150.0,543.7 Q 1160,538.7 1170.0,532.3 Q 1180,525.9 1190.0,518.2 Q 1200,510.6 1210.0,501.8 Q 1220,493.0 1230.0,483.3 Q 1240,473.6 1250.0,463.2 Q 1260,452.8 1270.0,442.0 Q 1280,431.2 1290.0,420.2 Q 1300,409.3 1310.0,398.4 Q 1320,387.6 1330.0,377.2 Q 1340,366.7 1350.0,357.0 Q 1360,347.2 1370.0,338.3 Q 1380,329.5 1390.0,321.8 L 1400,520 L 0,520 Z" fill="#00ff88" opacity="0.024"/>
<path d="M 0,107.1 Q 0,107.1 10.0,108.1 Q 20,109.1 30.0,110.6 Q 40,112.2 50.0,114.3 Q 60,116.3 70.0,118.9 Q 80,121.5 90.0,124.6 Q 100,127.7 110.0,131.3 Q 120,134.8 130.0,138.8 Q 140,142.8 150.0,147.1 Q 160,151.5 170.0,156.1 Q 180,160.7 190.0,165.6 Q 200,170.5 210.0,175.5 Q 220,180.5 230.0,185.6 Q 240,190.7 250.0,195.7 Q 260,200.8 270.0,205.8 Q 280,210.8 290.0,215.6 Q 300,220.4 310.0,224.9 Q 320,229.5 330.0,233.7 Q 340,237.9 350.0,241.7 Q 360,245.6 370.0,249.0 Q 380,252.3 390.0,255.2 Q 400,258.1 410.0,260.4 Q 420,262.7 430.0,264.5 Q 440,266.2 450.0,267.3 Q 460,268.5 470.0,269.0 Q 480,269.5 490.0,269.5 Q 500,269.4 510.0,268.7 Q 520,268.0 530.0,266.8 Q 540,265.5 550.0,263.8 Q 560,262.0 570.0,259.7 Q 580,257.4 590.0,254.7 Q 600,252.0 610.0,248.9 Q 620,245.8 630.0,242.3 Q 640,238.9 650.0,235.2 Q 660,231.5 670.0,227.6 Q 680,223.8 690.0,219.8 Q 700,215.8 710.0,211.8 Q 720,207.7 730.0,203.7 Q 740,199.7 750.0,195.8 Q 760,191.8 770.0,188.1 Q 780,184.3 790.0,180.7 Q 800,177.1 810.0,173.7 Q 820,170.4 830.0,167.3 Q 840,164.2 850.0,161.5 Q 860,158.7 870.0,156.3 Q 880,153.8 890.0,151.7 Q 900,149.6 910.0,147.8 Q 920,146.1 930.0,144.7 Q 940,143.2 950.0,142.1 Q 960,141.0 970.0,140.2 Q 980,139.4 990.0,138.9 Q 1000,138.4 1010.0,138.2 Q 1020,137.9 1030.0,137.8 Q 1040,137.8 1050.0,137.9 Q 1060,138.1 1070.0,138.3 Q 1080,138.6 1090.0,139.0 Q 1100,139.4 1110.0,139.9 Q 1120,140.3 1130.0,140.8 Q 1140,141.3 1150.0,141.9 Q 1160,142.4 1170.0,142.9 Q 1180,143.4 1190.0,143.9 Q 1200,144.4 1210.0,144.8 Q 1220,145.2 1230.0,145.6 Q 1240,146.0 1250.0,146.4 Q 1260,146.7 1270.0,147.0 Q 1280,147.3 1290.0,147.6 Q 1300,147.8 1310.0,148.1 Q 1320,148.4 1330.0,148.6 Q 1340,148.9 1350.0,149.2 Q 1360,149.5 1370.0,149.8 Q 1380,150.2 1390.0,150.6" fill="none" stroke="#dd44ff" stroke-width="1.7" opacity="0.24" filter="url(#glow)"/>
<path d="M 0,107.1 Q 0,107.1 10.0,108.1 Q 20,109.1 30.0,110.6 Q 40,112.2 50.0,114.3 Q 60,116.3 70.0,118.9 Q 80,121.5 90.0,124.6 Q 100,127.7 110.0,131.3 Q 120,134.8 130.0,138.8 Q 140,142.8 150.0,147.1 Q 160,151.5 170.0,156.1 Q 180,160.7 190.0,165.6 Q 200,170.5 210.0,175.5 Q 220,180.5 230.0,185.6 Q 240,190.7 250.0,195.7 Q 260,200.8 270.0,205.8 Q 280,210.8 290.0,215.6 Q 300,220.4 310.0,224.9 Q 320,229.5 330.0,233.7 Q 340,237.9 350.0,241.7 Q 360,245.6 370.0,249.0 Q 380,252.3 390.0,255.2 Q 400,258.1 410.0,260.4 Q 420,262.7 430.0,264.5 Q 440,266.2 450.0,267.3 Q 460,268.5 470.0,269.0 Q 480,269.5 490.0,269.5 Q 500,269.4 510.0,268.7 Q 520,268.0 530.0,266.8 Q 540,265.5 550.0,263.8 Q 560,262.0 570.0,259.7 Q 580,257.4 590.0,254.7 Q 600,252.0 610.0,248.9 Q 620,245.8 630.0,242.3 Q 640,238.9 650.0,235.2 Q 660,231.5 670.0,227.6 Q 680,223.8 690.0,219.8 Q 700,215.8 710.0,211.8 Q 720,207.7 730.0,203.7 Q 740,199.7 750.0,195.8 Q 760,191.8 770.0,188.1 Q 780,184.3 790.0,180.7 Q 800,177.1 810.0,173.7 Q 820,170.4 830.0,167.3 Q 840,164.2 850.0,161.5 Q 860,158.7 870.0,156.3 Q 880,153.8 890.0,151.7 Q 900,149.6 910.0,147.8 Q 920,146.1 930.0,144.7 Q 940,143.2 950.0,142.1 Q 960,141.0 970.0,140.2 Q 980,139.4 990.0,138.9 Q 1000,138.4 1010.0,138.2 Q 1020,137.9 1030.0,137.8 Q 1040,137.8 1050.0,137.9 Q 1060,138.1 1070.0,138.3 Q 1080,138.6 1090.0,139.0 Q 1100,139.4 1110.0,139.9 Q 1120,140.3 1130.0,140.8 Q 1140,141.3 1150.0,141.9 Q 1160,142.4 1170.0,142.9 Q 1180,143.4 1190.0,143.9 Q 1200,144.4 1210.0,144.8 Q 1220,145.2 1230.0,145.6 Q 1240,146.0 1250.0,146.4 Q 1260,146.7 1270.0,147.0 Q 1280,147.3 1290.0,147.6 Q 1300,147.8 1310.0,148.1 Q 1320,148.4 1330.0,148.6 Q 1340,148.9 1350.0,149.2 Q 1360,149.5 1370.0,149.8 Q 1380,150.2 1390.0,150.6 L 1400,520 L 0,520 Z" fill="#dd44ff" opacity="0.036"/>
<circle cx="631" cy="88" r="2.9" fill="#ff6644" opacity="0.19"/>
<circle cx="1043" cy="519" r="3.8" fill="#44ddff" opacity="0.25"/>
<circle cx="547" cy="347" r="3.6" fill="#44ddff" opacity="0.59"/>
<circle cx="33" cy="461" r="2.3" fill="#dd44ff" opacity="0.43"/>
<circle cx="1021" cy="507" r="2.1" fill="#dd44ff" opacity="0.48"/>
<circle cx="186" cy="490" r="3.8" fill="#00ff88" opacity="0.20"/>
<circle cx="735" cy="130" r="1.6" fill="#00d4ff" opacity="0.26"/>
<circle cx="325" cy="416" r="1.0" fill="#00ff88" opacity="0.26"/>
<circle cx="386" cy="446" r="1.5" fill="#00ff88" opacity="0.18"/>
<circle cx="1342" cy="451" r="3.2" fill="#ff6644" opacity="0.44"/>
<circle cx="354" cy="515" r="3.1" fill="#ff6644" opacity="0.23"/>
<circle cx="218" cy="25" r="3.3" fill="#8844ff" opacity="0.47"/>
<circle cx="1307" cy="248" r="2.2" fill="#00ff88" opacity="0.29"/>
<circle cx="514" cy="339" r="1.5" fill="#44ddff" opacity="0.48"/>
<circle cx="91" cy="332" r="2.3" fill="#00ff88" opacity="0.27"/>
<circle cx="186" cy="495" r="1.7" fill="#dd44ff" opacity="0.23"/>
<circle cx="1211" cy="257" r="1.9" fill="#00d4ff" opacity="0.15"/>
<circle cx="456" cy="32" r="1.6" fill="#44ddff" opacity="0.42"/>
<circle cx="751" cy="339" r="1.1" fill="#00d4ff" opacity="0.22"/>
<circle cx="267" cy="60" r="1.7" fill="#8844ff" opacity="0.38"/>
<circle cx="14" cy="394" r="2.8" fill="#ff00ea" opacity="0.60"/>
<circle cx="610" cy="403" r="2.3" fill="#00ff88" opacity="0.43"/>
<circle cx="359" cy="100" r="3.5" fill="#8844ff" opacity="0.32"/>
<circle cx="1283" cy="245" r="1.5" fill="#8844ff" opacity="0.25"/>
<line x1="173" y1="405" x2="902" y2="56" stroke="#dd44ff" stroke-width="0.5" opacity="0.05"/>
<line x1="1059" y1="52" x2="416" y2="497" stroke="#dd44ff" stroke-width="0.5" opacity="0.10"/>
<line x1="577" y1="55" x2="680" y2="316" stroke="#8844ff" stroke-width="0.5" opacity="0.08"/>
<line x1="1232" y1="517" x2="79" y2="275" stroke="#44ddff" stroke-width="0.5" opacity="0.07"/>
<line x1="1093" y1="313" x2="830" y2="206" stroke="#8844ff" stroke-width="0.5" opacity="0.11"/>
<line x1="1178" y1="225" x2="757" y2="233" stroke="#ff00ea" stroke-width="0.5" opacity="0.11"/>
<line x1="411" y1="453" x2="479" y2="127" stroke="#00d4ff" stroke-width="0.5" opacity="0.06"/>
<line x1="1048" y1="168" x2="132" y2="198" stroke="#00d4ff" stroke-width="0.5" opacity="0.06"/>
<polygon points="943,302 952,311 943,320 934,311" fill="none" stroke="#8844ff" stroke-width="1" opacity="0.17"/>
<polygon points="689,369 696,376 689,383 682,376" fill="none" stroke="#44ddff" stroke-width="1" opacity="0.23"/>
<polygon points="447,316 456,325 447,334 438,325" fill="none" stroke="#dd44ff" stroke-width="1" opacity="0.13"/>
<polygon points="1012,94 1021,103 1012,112 1003,103" fill="none" stroke="#00ff88" stroke-width="1" opacity="0.20"/>
<polygon points="181,132 185,136 181,140 177,136" fill="none" stroke="#ff6644" stroke-width="1" opacity="0.14"/>
<polygon points="1245,161 1257,173 1245,185 1233,173" fill="none" stroke="#ff00ea" stroke-width="1" opacity="0.12"/>
<polygon points="775,235 779,239 775,243 771,239" fill="none" stroke="#8844ff" stroke-width="1" opacity="0.30"/>
<text x="1384" y="508" text-anchor="end" fill="rgba(255,255,255,0.12)" font-family="monospace" font-size="10">Generert 10.04.2026 kl. 13:00 UTC</text>
</svg>