<svg xmlns="http://www.w3.org/2000/svg" viewBox="0 0 1400 520" preserveAspectRatio="xMidYMid slice">
<defs>
<linearGradient id="bg" x1="0%" y1="0%" x2="100%" y2="100%"><stop offset="0%" stop-color="#0f0c29"/><stop offset="50%" stop-color="#302b63"/><stop offset="100%" stop-color="#24243e"/></linearGradient>
<filter id="glow"><feGaussianBlur stdDeviation="6" result="b"/><feMerge><feMergeNode in="b"/><feMergeNode in="SourceGraphic"/></feMerge></filter>
<filter id="softglow"><feGaussianBlur stdDeviation="20" result="b"/><feMerge><feMergeNode in="b"/><feMergeNode in="SourceGraphic"/></feMerge></filter>
<radialGradient id="orb0"><stop offset="0%" stop-color="#00ff88" stop-opacity="0.4"/><stop offset="100%" stop-color="#00ff88" stop-opacity="0"/></radialGradient>
<radialGradient id="orb1"><stop offset="0%" stop-color="#44ddff" stop-opacity="0.4"/><stop offset="100%" stop-color="#44ddff" stop-opacity="0"/></radialGradient>
<radialGradient id="orb2"><stop offset="0%" stop-color="#8844ff" stop-opacity="0.4"/><stop offset="100%" stop-color="#8844ff" stop-opacity="0"/></radialGradient>
<radialGradient id="orb3"><stop offset="0%" stop-color="#44ddff" stop-opacity="0.4"/><stop offset="100%" stop-color="#44ddff" stop-opacity="0"/></radialGradient>
<radialGradient id="orb4"><stop offset="0%" stop-color="#dd44ff" stop-opacity="0.4"/><stop offset="100%" stop-color="#dd44ff" stop-opacity="0"/></radialGradient>
</defs>
<rect width="1400" height="520" fill="url(#bg)"/>
<circle cx="428" cy="247" r="238" fill="url(#orb0)" filter="url(#softglow)"/>
<circle cx="879" cy="359" r="272" fill="url(#orb1)" filter="url(#softglow)"/>
<circle cx="1251" cy="201" r="233" fill="url(#orb2)" filter="url(#softglow)"/>
<path d="M 0,337.4 Q 0,337.4 10.0,333.7 Q 20,330.0 30.0,325.9 Q 40,321.8 50.0,317.3 Q 60,312.9 70.0,308.3 Q 80,303.7 90.0,299.0 Q 100,294.3 110.0,289.6 Q 120,284.9 130.0,280.4 Q 140,275.9 150.0,271.6 Q 160,267.3 170.0,263.4 Q 180,259.4 190.0,255.9 Q 200,252.3 210.0,249.2 Q 220,246.1 230.0,243.5 Q 240,240.9 250.0,238.8 Q 260,236.8 270.0,235.2 Q 280,233.7 290.0,232.7 Q 300,231.6 310.0,231.1 Q 320,230.6 330.0,230.6 Q 340,230.5 350.0,230.9 Q 360,231.3 370.0,232.0 Q 380,232.8 390.0,233.8 Q 400,234.8 410.0,236.1 Q 420,237.4 430.0,238.8 Q 440,240.3 450.0,241.8 Q 460,243.4 470.0,245.0 Q 480,246.6 490.0,248.1 Q 500,249.7 510.0,251.3 Q 520,252.8 530.0,254.3 Q 540,255.7 550.0,257.1 Q 560,258.5 570.0,259.7 Q 580,260.9 590.0,262.1 Q 600,263.2 610.0,264.3 Q 620,265.3 630.0,266.3 Q 640,267.2 650.0,268.2 Q 660,269.1 670.0,270.0 Q 680,270.9 690.0,271.9 Q 700,272.8 710.0,273.8 Q 720,274.8 730.0,276.0 Q 740,277.1 750.0,278.4 Q 760,279.6 770.0,281.1 Q 780,282.5 790.0,284.1 Q 800,285.8 810.0,287.6 Q 820,289.4 830.0,291.5 Q 840,293.5 850.0,295.7 Q 860,297.9 870.0,300.3 Q 880,302.7 890.0,305.2 Q 900,307.7 910.0,310.2 Q 920,312.8 930.0,315.3 Q 940,317.9 950.0,320.4 Q 960,322.9 970.0,325.2 Q 980,327.6 990.0,329.7 Q 1000,331.9 1010.0,333.7 Q 1020,335.6 1030.0,337.0 Q 1040,338.5 1050.0,339.5 Q 1060,340.5 1070.0,341.0 Q 1080,341.5 1090.0,341.5 Q 1100,341.4 1110.0,340.8 Q 1120,340.1 1130.0,338.8 Q 1140,337.6 1150.0,335.7 Q 1160,333.8 1170.0,331.2 Q 1180,328.7 1190.0,325.6 Q 1200,322.5 1210.0,318.9 Q 1220,315.2 1230.0,311.1 Q 1240,307.0 1250.0,302.5 Q 1260,298.0 1270.0,293.2 Q 1280,288.4 1290.0,283.4 Q 1300,278.4 1310.0,273.4 Q 1320,268.3 1330.0,263.3 Q 1340,258.3 1350.0,253.4 Q 1360,248.5 1370.0,244.0 Q 1380,239.4 1390.0,235.2" fill="none" stroke="#8844ff" stroke-width="1.8" opacity="0.22" filter="url(#glow)"/>
<path d="M 0,337.4 Q 0,337.4 10.0,333.7 Q 20,330.0 30.0,325.9 Q 40,321.8 50.0,317.3 Q 60,312.9 70.0,308.3 Q 80,303.7 90.0,299.0 Q 100,294.3 110.0,289.6 Q 120,284.9 130.0,280.4 Q 140,275.9 150.0,271.6 Q 160,267.3 170.0,263.4 Q 180,259.4 190.0,255.9 Q 200,252.3 210.0,249.2 Q 220,246.1 230.0,243.5 Q 240,240.9 250.0,238.8 Q 260,236.8 270.0,235.2 Q 280,233.7 290.0,232.7 Q 300,231.6 310.0,231.1 Q 320,230.6 330.0,230.6 Q 340,230.5 350.0,230.9 Q 360,231.3 370.0,232.0 Q 380,232.8 390.0,233.8 Q 400,234.8 410.0,236.1 Q 420,237.4 430.0,238.8 Q 440,240.3 450.0,241.8 Q 460,243.4 470.0,245.0 Q 480,246.6 490.0,248.1 Q 500,249.7 510.0,251.3 Q 520,252.8 530.0,254.3 Q 540,255.7 550.0,257.1 Q 560,258.5 570.0,259.7 Q 580,260.9 590.0,262.1 Q 600,263.2 610.0,264.3 Q 620,265.3 630.0,266.3 Q 640,267.2 650.0,268.2 Q 660,269.1 670.0,270.0 Q 680,270.9 690.0,271.9 Q 700,272.8 710.0,273.8 Q 720,274.8 730.0,276.0 Q 740,277.1 750.0,278.4 Q 760,279.6 770.0,281.1 Q 780,282.5 790.0,284.1 Q 800,285.8 810.0,287.6 Q 820,289.4 830.0,291.5 Q 840,293.5 850.0,295.7 Q 860,297.9 870.0,300.3 Q 880,302.7 890.0,305.2 Q 900,307.7 910.0,310.2 Q 920,312.8 930.0,315.3 Q 940,317.9 950.0,320.4 Q 960,322.9 970.0,325.2 Q 980,327.6 990.0,329.7 Q 1000,331.9 1010.0,333.7 Q 1020,335.6 1030.0,337.0 Q 1040,338.5 1050.0,339.5 Q 1060,340.5 1070.0,341.0 Q 1080,341.5 1090.0,341.5 Q 1100,341.4 1110.0,340.8 Q 1120,340.1 1130.0,338.8 Q 1140,337.6 1150.0,335.7 Q 1160,333.8 1170.0,331.2 Q 1180,328.7 1190.0,325.6 Q 1200,322.5 1210.0,318.9 Q 1220,315.2 1230.0,311.1 Q 1240,307.0 1250.0,302.5 Q 1260,298.0 1270.0,293.2 Q 1280,288.4 1290.0,283.4 Q 1300,278.4 1310.0,273.4 Q 1320,268.3 1330.0,263.3 Q 1340,258.3 1350.0,253.4 Q 1360,248.5 1370.0,244.0 Q 1380,239.4 1390.0,235.2 L 1400,520 L 0,520 Z" fill="#8844ff" opacity="0.034"/>
<path d="M 0,227.8 Q 0,227.8 10.0,232.1 Q 20,236.4 30.0,241.3 Q 40,246.2 50.0,251.5 Q 60,256.9 70.0,262.5 Q 80,268.2 90.0,274.0 Q 100,279.8 110.0,285.6 Q 120,291.3 130.0,296.8 Q 140,302.3 150.0,307.4 Q 160,312.4 170.0,316.9 Q 180,321.3 190.0,324.9 Q 200,328.5 210.0,331.2 Q 220,333.9 230.0,335.5 Q 240,337.1 250.0,337.6 Q 260,338.1 270.0,337.4 Q 280,336.7 290.0,334.8 Q 300,332.9 310.0,329.9 Q 320,327.0 330.0,323.0 Q 340,318.9 350.0,314.1 Q 360,309.2 370.0,303.5 Q 380,297.9 390.0,291.7 Q 400,285.6 410.0,279.1 Q 420,272.6 430.0,266.0 Q 440,259.3 450.0,252.8 Q 460,246.3 470.0,240.1 Q 480,233.9 490.0,228.2 Q 500,222.5 510.0,217.4 Q 520,212.4 530.0,208.1 Q 540,203.8 550.0,200.4 Q 560,197.0 570.0,194.6 Q 580,192.2 590.0,190.7 Q 600,189.2 610.0,188.7 Q 620,188.2 630.0,188.5 Q 640,188.9 650.0,190.0 Q 660,191.2 670.0,193.1 Q 680,194.9 690.0,197.4 Q 700,199.8 710.0,202.6 Q 720,205.5 730.0,208.6 Q 740,211.8 750.0,215.0 Q 760,218.3 770.0,221.6 Q 780,224.9 790.0,228.1 Q 800,231.3 810.0,234.3 Q 820,237.3 830.0,240.1 Q 840,242.8 850.0,245.3 Q 860,247.7 870.0,249.9 Q 880,252.0 890.0,253.9 Q 900,255.8 910.0,257.4 Q 920,259.0 930.0,260.4 Q 940,261.9 950.0,263.1 Q 960,264.4 970.0,265.6 Q 980,266.9 990.0,268.1 Q 1000,269.3 1010.0,270.6 Q 1020,272.0 1030.0,273.4 Q 1040,274.8 1050.0,276.4 Q 1060,278.0 1070.0,279.8 Q 1080,281.6 1090.0,283.5 Q 1100,285.5 1110.0,287.6 Q 1120,289.6 1130.0,291.8 Q 1140,293.9 1150.0,296.1 Q 1160,298.2 1170.0,300.3 Q 1180,302.3 1190.0,304.1 Q 1200,305.9 1210.0,307.4 Q 1220,308.9 1230.0,309.9 Q 1240,310.9 1250.0,311.3 Q 1260,311.8 1270.0,311.5 Q 1280,311.3 1290.0,310.3 Q 1300,309.3 1310.0,307.4 Q 1320,305.6 1330.0,303.0 Q 1340,300.3 1350.0,296.9 Q 1360,293.4 1370.0,289.2 Q 1380,284.9 1390.0,280.0" fill="none" stroke="#8844ff" stroke-width="2.8" opacity="0.16" filter="url(#glow)"/>
<path d="M 0,194.4 Q 0,194.4 10.0,192.2 Q 20,190.0 30.0,185.9 Q 40,181.9 50.0,176.2 Q 60,170.5 70.0,163.5 Q 80,156.5 90.0,148.4 Q 100,140.4 110.0,131.6 Q 120,122.9 130.0,113.8 Q 140,104.6 150.0,95.5 Q 160,86.3 170.0,77.4 Q 180,68.5 190.0,60.1 Q 200,51.6 210.0,43.9 Q 220,36.2 230.0,29.4 Q 240,22.6 250.0,16.7 Q 260,10.9 270.0,6.0 Q 280,1.1 290.0,-2.7 Q 300,-6.6 310.0,-9.6 Q 320,-12.5 330.0,-14.7 Q 340,-16.8 350.0,-18.3 Q 360,-19.8 370.0,-20.7 Q 380,-21.7 390.0,-22.3 Q 400,-22.9 410.0,-23.4 Q 420,-23.8 430.0,-24.2 Q 440,-24.5 450.0,-25.0 Q 460,-25.4 470.0,-26.0 Q 480,-26.5 490.0,-27.3 Q 500,-28.0 510.0,-28.9 Q 520,-29.8 530.0,-30.8 Q 540,-31.8 550.0,-32.8 Q 560,-33.8 570.0,-34.7 Q 580,-35.5 590.0,-36.1 Q 600,-36.7 610.0,-36.8 Q 620,-36.9 630.0,-36.3 Q 640,-35.7 650.0,-34.3 Q 660,-33.0 670.0,-30.6 Q 680,-28.2 690.0,-24.7 Q 700,-21.2 710.0,-16.6 Q 720,-11.9 730.0,-6.0 Q 740,-0.2 750.0,6.9 Q 760,13.9 770.0,22.0 Q 780,30.1 790.0,39.1 Q 800,48.2 810.0,57.9 Q 820,67.6 830.0,77.7 Q 840,87.9 850.0,98.1 Q 860,108.4 870.0,118.4 Q 880,128.4 890.0,137.9 Q 900,147.3 910.0,155.9 Q 920,164.4 930.0,171.6 Q 940,178.8 950.0,184.5 Q 960,190.2 970.0,194.0 Q 980,197.8 990.0,199.5 Q 1000,201.3 1010.0,200.9 Q 1020,200.5 1030.0,197.9 Q 1040,195.3 1050.0,190.4 Q 1060,185.6 1070.0,178.7 Q 1080,171.8 1090.0,163.0 Q 1100,154.3 1110.0,143.8 Q 1120,133.4 1130.0,121.7 Q 1140,110.0 1150.0,97.4 Q 1160,84.7 1170.0,71.6 Q 1180,58.4 1190.0,45.2 Q 1200,31.9 1210.0,19.0 Q 1220,6.0 1230.0,-6.1 Q 1240,-18.3 1250.0,-29.4 Q 1260,-40.5 1270.0,-50.2 Q 1280,-59.8 1290.0,-67.8 Q 1300,-75.8 1310.0,-81.9 Q 1320,-88.0 1330.0,-92.0 Q 1340,-96.1 1350.0,-98.2 Q 1360,-100.3 1370.0,-100.3 Q 1380,-100.4 1390.0,-98.6" fill="none" stroke="#00ff88" stroke-width="1.8" opacity="0.26" filter="url(#glow)"/>
<path d="M 0,194.4 Q 0,194.4 10.0,192.2 Q 20,190.0 30.0,185.9 Q 40,181.9 50.0,176.2 Q 60,170.5 70.0,163.5 Q 80,156.5 90.0,148.4 Q 100,140.4 110.0,131.6 Q 120,122.9 130.0,113.8 Q 140,104.6 150.0,95.5 Q 160,86.3 170.0,77.4 Q 180,68.5 190.0,60.1 Q 200,51.6 210.0,43.9 Q 220,36.2 230.0,29.4 Q 240,22.6 250.0,16.7 Q 260,10.9 270.0,6.0 Q 280,1.1 290.0,-2.7 Q 300,-6.6 310.0,-9.6 Q 320,-12.5 330.0,-14.7 Q 340,-16.8 350.0,-18.3 Q 360,-19.8 370.0,-20.7 Q 380,-21.7 390.0,-22.3 Q 400,-22.9 410.0,-23.4 Q 420,-23.8 430.0,-24.2 Q 440,-24.5 450.0,-25.0 Q 460,-25.4 470.0,-26.0 Q 480,-26.5 490.0,-27.3 Q 500,-28.0 510.0,-28.9 Q 520,-29.8 530.0,-30.8 Q 540,-31.8 550.0,-32.8 Q 560,-33.8 570.0,-34.7 Q 580,-35.5 590.0,-36.1 Q 600,-36.7 610.0,-36.8 Q 620,-36.9 630.0,-36.3 Q 640,-35.7 650.0,-34.3 Q 660,-33.0 670.0,-30.6 Q 680,-28.2 690.0,-24.7 Q 700,-21.2 710.0,-16.6 Q 720,-11.9 730.0,-6.0 Q 740,-0.2 750.0,6.9 Q 760,13.9 770.0,22.0 Q 780,30.1 790.0,39.1 Q 800,48.2 810.0,57.9 Q 820,67.6 830.0,77.7 Q 840,87.9 850.0,98.1 Q 860,108.4 870.0,118.4 Q 880,128.4 890.0,137.9 Q 900,147.3 910.0,155.9 Q 920,164.4 930.0,171.6 Q 940,178.8 950.0,184.5 Q 960,190.2 970.0,194.0 Q 980,197.8 990.0,199.5 Q 1000,201.3 1010.0,200.9 Q 1020,200.5 1030.0,197.9 Q 1040,195.3 1050.0,190.4 Q 1060,185.6 1070.0,178.7 Q 1080,171.8 1090.0,163.0 Q 1100,154.3 1110.0,143.8 Q 1120,133.4 1130.0,121.7 Q 1140,110.0 1150.0,97.4 Q 1160,84.7 1170.0,71.6 Q 1180,58.4 1190.0,45.2 Q 1200,31.9 1210.0,19.0 Q 1220,6.0 1230.0,-6.1 Q 1240,-18.3 1250.0,-29.4 Q 1260,-40.5 1270.0,-50.2 Q 1280,-59.8 1290.0,-67.8 Q 1300,-75.8 1310.0,-81.9 Q 1320,-88.0 1330.0,-92.0 Q 1340,-96.1 1350.0,-98.2 Q 1360,-100.3 1370.0,-100.3 Q 1380,-100.4 1390.0,-98.6 L 1400,520 L 0,520 Z" fill="#00ff88" opacity="0.039"/>
<path d="M 0,74.8 Q 0,74.8 10.0,69.3 Q 20,63.7 30.0,59.1 Q 40,54.4 50.0,50.9 Q 60,47.3 70.0,45.0 Q 80,42.6 90.0,41.5 Q 100,40.4 110.0,40.6 Q 120,40.8 130.0,42.3 Q 140,43.8 150.0,46.5 Q 160,49.2 170.0,53.1 Q 180,56.9 190.0,61.8 Q 200,66.7 210.0,72.4 Q 220,78.1 230.0,84.5 Q 240,90.8 250.0,97.7 Q 260,104.5 270.0,111.6 Q 280,118.6 290.0,125.7 Q 300,132.8 310.0,139.7 Q 320,146.6 330.0,153.1 Q 340,159.7 350.0,165.6 Q 360,171.6 370.0,176.9 Q 380,182.2 390.0,186.7 Q 400,191.2 410.0,194.8 Q 420,198.4 430.0,201.1 Q 440,203.9 450.0,205.6 Q 460,207.4 470.0,208.4 Q 480,209.3 490.0,209.4 Q 500,209.5 510.0,208.9 Q 520,208.2 530.0,207.0 Q 540,205.7 550.0,204.0 Q 560,202.2 570.0,200.1 Q 580,198.0 590.0,195.6 Q 600,193.2 610.0,190.7 Q 620,188.2 630.0,185.7 Q 640,183.2 650.0,180.8 Q 660,178.3 670.0,176.0 Q 680,173.7 690.0,171.6 Q 700,169.4 710.0,167.5 Q 720,165.6 730.0,163.8 Q 740,162.1 750.0,160.5 Q 760,158.9 770.0,157.5 Q 780,156.0 790.0,154.6 Q 800,153.2 810.0,151.7 Q 820,150.3 830.0,148.8 Q 840,147.3 850.0,145.6 Q 860,143.9 870.0,141.9 Q 880,140.0 890.0,137.8 Q 900,135.6 910.0,133.1 Q 920,130.5 930.0,127.7 Q 940,124.8 950.0,121.7 Q 960,118.5 970.0,115.1 Q 980,111.7 990.0,108.0 Q 1000,104.4 1010.0,100.7 Q 1020,97.0 1030.0,93.2 Q 1040,89.5 1050.0,86.0 Q 1060,82.4 1070.0,79.1 Q 1080,75.8 1090.0,73.0 Q 1100,70.2 1110.0,67.9 Q 1120,65.7 1130.0,64.1 Q 1140,62.6 1150.0,61.9 Q 1160,61.2 1170.0,61.5 Q 1180,61.7 1190.0,63.0 Q 1200,64.2 1210.0,66.6 Q 1220,68.9 1230.0,72.2 Q 1240,75.6 1250.0,79.9 Q 1260,84.3 1270.0,89.6 Q 1280,94.8 1290.0,100.9 Q 1300,107.0 1310.0,113.8 Q 1320,120.5 1330.0,127.7 Q 1340,135.0 1350.0,142.5 Q 1360,150.0 1370.0,157.5 Q 1380,165.1 1390.0,172.5" fill="none" stroke="#8844ff" stroke-width="1.3" opacity="0.15" filter="url(#glow)"/>
<path d="M 0,74.8 Q 0,74.8 10.0,69.3 Q 20,63.7 30.0,59.1 Q 40,54.4 50.0,50.9 Q 60,47.3 70.0,45.0 Q 80,42.6 90.0,41.5 Q 100,40.4 110.0,40.6 Q 120,40.8 130.0,42.3 Q 140,43.8 150.0,46.5 Q 160,49.2 170.0,53.1 Q 180,56.9 190.0,61.8 Q 200,66.7 210.0,72.4 Q 220,78.1 230.0,84.5 Q 240,90.8 250.0,97.7 Q 260,104.5 270.0,111.6 Q 280,118.6 290.0,125.7 Q 300,132.8 310.0,139.7 Q 320,146.6 330.0,153.1 Q 340,159.7 350.0,165.6 Q 360,171.6 370.0,176.9 Q 380,182.2 390.0,186.7 Q 400,191.2 410.0,194.8 Q 420,198.4 430.0,201.1 Q 440,203.9 450.0,205.6 Q 460,207.4 470.0,208.4 Q 480,209.3 490.0,209.4 Q 500,209.5 510.0,208.9 Q 520,208.2 530.0,207.0 Q 540,205.7 550.0,204.0 Q 560,202.2 570.0,200.1 Q 580,198.0 590.0,195.6 Q 600,193.2 610.0,190.7 Q 620,188.2 630.0,185.7 Q 640,183.2 650.0,180.8 Q 660,178.3 670.0,176.0 Q 680,173.7 690.0,171.6 Q 700,169.4 710.0,167.5 Q 720,165.6 730.0,163.8 Q 740,162.1 750.0,160.5 Q 760,158.9 770.0,157.5 Q 780,156.0 790.0,154.6 Q 800,153.2 810.0,151.7 Q 820,150.3 830.0,148.8 Q 840,147.3 850.0,145.6 Q 860,143.9 870.0,141.9 Q 880,140.0 890.0,137.8 Q 900,135.6 910.0,133.1 Q 920,130.5 930.0,127.7 Q 940,124.8 950.0,121.7 Q 960,118.5 970.0,115.1 Q 980,111.7 990.0,108.0 Q 1000,104.4 1010.0,100.7 Q 1020,97.0 1030.0,93.2 Q 1040,89.5 1050.0,86.0 Q 1060,82.4 1070.0,79.1 Q 1080,75.8 1090.0,73.0 Q 1100,70.2 1110.0,67.9 Q 1120,65.7 1130.0,64.1 Q 1140,62.6 1150.0,61.9 Q 1160,61.2 1170.0,61.5 Q 1180,61.7 1190.0,63.0 Q 1200,64.2 1210.0,66.6 Q 1220,68.9 1230.0,72.2 Q 1240,75.6 1250.0,79.9 Q 1260,84.3 1270.0,89.6 Q 1280,94.8 1290.0,100.9 Q 1300,107.0 1310.0,113.8 Q 1320,120.5 1330.0,127.7 Q 1340,135.0 1350.0,142.5 Q 1360,150.0 1370.0,157.5 Q 1380,165.1 1390.0,172.5 L 1400,520 L 0,520 Z" fill="#8844ff" opacity="0.023"/>
<path d="M 0,359.1 Q 0,359.1 10.0,354.1 Q 20,349.1 30.0,344.0 Q 40,339.0 50.0,333.9 Q 60,328.8 70.0,323.8 Q 80,318.8 90.0,313.9 Q 100,309.0 110.0,304.3 Q 120,299.6 130.0,295.1 Q 140,290.6 150.0,286.4 Q 160,282.2 170.0,278.4 Q 180,274.5 190.0,271.0 Q 200,267.5 210.0,264.4 Q 220,261.4 230.0,258.7 Q 240,256.1 250.0,253.9 Q 260,251.8 270.0,250.1 Q 280,248.4 290.0,247.2 Q 300,246.0 310.0,245.2 Q 320,244.5 330.0,244.2 Q 340,244.0 350.0,244.2 Q 360,244.4 370.0,245.0 Q 380,245.7 390.0,246.7 Q 400,247.8 410.0,249.2 Q 420,250.6 430.0,252.4 Q 440,254.1 450.0,256.2 Q 460,258.3 470.0,260.6 Q 480,262.9 490.0,265.4 Q 500,268.0 510.0,270.7 Q 520,273.4 530.0,276.2 Q 540,279.0 550.0,281.9 Q 560,284.8 570.0,287.7 Q 580,290.6 590.0,293.6 Q 600,296.5 610.0,299.4 Q 620,302.2 630.0,305.0 Q 640,307.8 650.0,310.5 Q 660,313.2 670.0,315.7 Q 680,318.3 690.0,320.7 Q 700,323.1 710.0,325.3 Q 720,327.6 730.0,329.6 Q 740,331.7 750.0,333.5 Q 760,335.4 770.0,337.1 Q 780,338.8 790.0,340.3 Q 800,341.8 810.0,343.2 Q 820,344.5 830.0,345.7 Q 840,346.9 850.0,348.0 Q 860,349.0 870.0,350.0 Q 880,350.9 890.0,351.8 Q 900,352.6 910.0,353.4 Q 920,354.2 930.0,354.9 Q 940,355.6 950.0,356.3 Q 960,357.0 970.0,357.7 Q 980,358.4 990.0,359.1 Q 1000,359.8 1010.0,360.5 Q 1020,361.2 1030.0,362.0 Q 1040,362.8 1050.0,363.6 Q 1060,364.4 1070.0,365.3 Q 1080,366.2 1090.0,367.1 Q 1100,368.0 1110.0,369.0 Q 1120,370.0 1130.0,371.1 Q 1140,372.1 1150.0,373.2 Q 1160,374.3 1170.0,375.4 Q 1180,376.5 1190.0,377.6 Q 1200,378.7 1210.0,379.8 Q 1220,380.9 1230.0,382.0 Q 1240,383.1 1250.0,384.0 Q 1260,385.0 1270.0,385.9 Q 1280,386.8 1290.0,387.5 Q 1300,388.3 1310.0,388.8 Q 1320,389.4 1330.0,389.8 Q 1340,390.1 1350.0,390.3 Q 1360,390.4 1370.0,390.3 Q 1380,390.2 1390.0,389.8" fill="none" stroke="#dd44ff" stroke-width="2.1" opacity="0.09" filter="url(#glow)"/>
<path d="M 0,359.1 Q 0,359.1 10.0,354.1 Q 20,349.1 30.0,344.0 Q 40,339.0 50.0,333.9 Q 60,328.8 70.0,323.8 Q 80,318.8 90.0,313.9 Q 100,309.0 110.0,304.3 Q 120,299.6 130.0,295.1 Q 140,290.6 150.0,286.4 Q 160,282.2 170.0,278.4 Q 180,274.5 190.0,271.0 Q 200,267.5 210.0,264.4 Q 220,261.4 230.0,258.7 Q 240,256.1 250.0,253.9 Q 260,251.8 270.0,250.1 Q 280,248.4 290.0,247.2 Q 300,246.0 310.0,245.2 Q 320,244.5 330.0,244.2 Q 340,244.0 350.0,244.2 Q 360,244.4 370.0,245.0 Q 380,245.7 390.0,246.7 Q 400,247.8 410.0,249.2 Q 420,250.6 430.0,252.4 Q 440,254.1 450.0,256.2 Q 460,258.3 470.0,260.6 Q 480,262.9 490.0,265.4 Q 500,268.0 510.0,270.7 Q 520,273.4 530.0,276.2 Q 540,279.0 550.0,281.9 Q 560,284.8 570.0,287.7 Q 580,290.6 590.0,293.6 Q 600,296.5 610.0,299.4 Q 620,302.2 630.0,305.0 Q 640,307.8 650.0,310.5 Q 660,313.2 670.0,315.7 Q 680,318.3 690.0,320.7 Q 700,323.1 710.0,325.3 Q 720,327.6 730.0,329.6 Q 740,331.7 750.0,333.5 Q 760,335.4 770.0,337.1 Q 780,338.8 790.0,340.3 Q 800,341.8 810.0,343.2 Q 820,344.5 830.0,345.7 Q 840,346.9 850.0,348.0 Q 860,349.0 870.0,350.0 Q 880,350.9 890.0,351.8 Q 900,352.6 910.0,353.4 Q 920,354.2 930.0,354.9 Q 940,355.6 950.0,356.3 Q 960,357.0 970.0,357.7 Q 980,358.4 990.0,359.1 Q 1000,359.8 1010.0,360.5 Q 1020,361.2 1030.0,362.0 Q 1040,362.8 1050.0,363.6 Q 1060,364.4 1070.0,365.3 Q 1080,366.2 1090.0,367.1 Q 1100,368.0 1110.0,369.0 Q 1120,370.0 1130.0,371.1 Q 1140,372.1 1150.0,373.2 Q 1160,374.3 1170.0,375.4 Q 1180,376.5 1190.0,377.6 Q 1200,378.7 1210.0,379.8 Q 1220,380.9 1230.0,382.0 Q 1240,383.1 1250.0,384.0 Q 1260,385.0 1270.0,385.9 Q 1280,386.8 1290.0,387.5 Q 1300,388.3 1310.0,388.8 Q 1320,389.4 1330.0,389.8 Q 1340,390.1 1350.0,390.3 Q 1360,390.4 1370.0,390.3 Q 1380,390.2 1390.0,389.8 L 1400,520 L 0,520 Z" fill="#dd44ff" opacity="0.013"/>
<path d="M 0,190.0 Q 0,190.0 10.0,191.8 Q 20,193.7 30.0,194.6 Q 40,195.5 50.0,195.6 Q 60,195.7 70.0,195.1 Q 80,194.4 90.0,193.1 Q 100,191.8 110.0,189.9 Q 120,188.1 130.0,185.8 Q 140,183.6 150.0,181.1 Q 160,178.7 170.0,176.1 Q 180,173.5 190.0,171.0 Q 200,168.4 210.0,166.0 Q 220,163.6 230.0,161.4 Q 240,159.2 250.0,157.2 Q 260,155.2 270.0,153.4 Q 280,151.7 290.0,150.2 Q 300,148.7 310.0,147.4 Q 320,146.0 330.0,144.8 Q 340,143.6 350.0,142.5 Q 360,141.3 370.0,140.2 Q 380,139.0 390.0,137.7 Q 400,136.5 410.0,135.0 Q 420,133.6 430.0,132.0 Q 440,130.4 450.0,128.5 Q 460,126.7 470.0,124.7 Q 480,122.6 490.0,120.4 Q 500,118.3 510.0,116.0 Q 520,113.7 530.0,111.5 Q 540,109.3 550.0,107.2 Q 560,105.1 570.0,103.3 Q 580,101.5 590.0,100.1 Q 600,98.7 610.0,97.9 Q 620,97.0 630.0,96.8 Q 640,96.7 650.0,97.3 Q 660,97.9 670.0,99.3 Q 680,100.7 690.0,103.0 Q 700,105.3 710.0,108.4 Q 720,111.5 730.0,115.4 Q 740,119.3 750.0,123.9 Q 760,128.5 770.0,133.6 Q 780,138.7 790.0,144.1 Q 800,149.6 810.0,155.2 Q 820,160.8 830.0,166.3 Q 840,171.9 850.0,177.1 Q 860,182.3 870.0,187.1 Q 880,191.8 890.0,195.8 Q 900,199.8 910.0,202.9 Q 920,206.0 930.0,208.0 Q 940,210.1 950.0,211.1 Q 960,212.0 970.0,211.8 Q 980,211.7 990.0,210.3 Q 1000,209.0 1010.0,206.6 Q 1020,204.2 1030.0,200.8 Q 1040,197.4 1050.0,193.2 Q 1060,189.0 1070.0,184.2 Q 1080,179.4 1090.0,174.1 Q 1100,168.9 1110.0,163.4 Q 1120,158.0 1130.0,152.5 Q 1140,147.1 1150.0,141.9 Q 1160,136.7 1170.0,131.9 Q 1180,127.1 1190.0,122.9 Q 1200,118.7 1210.0,115.2 Q 1220,111.7 1230.0,108.9 Q 1240,106.2 1250.0,104.3 Q 1260,102.3 1270.0,101.2 Q 1280,100.1 1290.0,99.7 Q 1300,99.4 1310.0,99.7 Q 1320,100.0 1330.0,100.9 Q 1340,101.8 1350.0,103.1 Q 1360,104.5 1370.0,106.1 Q 1380,107.8 1390.0,109.6" fill="none" stroke="#00d4ff" stroke-width="1.7" opacity="0.27" filter="url(#glow)"/>
<circle cx="30" cy="245" r="2.9" fill="#dd44ff" opacity="0.31"/>
<circle cx="247" cy="346" r="2.2" fill="#44ddff" opacity="0.55"/>
<circle cx="361" cy="153" r="1.7" fill="#00d4ff" opacity="0.26"/>
<circle cx="1305" cy="358" r="2.9" fill="#44ddff" opacity="0.40"/>
<circle cx="588" cy="494" r="1.6" fill="#00ff88" opacity="0.16"/>
<circle cx="502" cy="382" r="3.0" fill="#ff6644" opacity="0.29"/>
<circle cx="1256" cy="382" r="3.4" fill="#00d4ff" opacity="0.47"/>
<circle cx="625" cy="132" r="3.7" fill="#00ff88" opacity="0.54"/>
<circle cx="1380" cy="440" r="3.5" fill="#00d4ff" opacity="0.18"/>
<circle cx="436" cy="500" r="1.0" fill="#dd44ff" opacity="0.48"/>
<circle cx="1143" cy="315" r="3.7" fill="#ff00ea" opacity="0.49"/>
<circle cx="1229" cy="280" r="2.5" fill="#44ddff" opacity="0.57"/>
<circle cx="341" cy="47" r="3.6" fill="#8844ff" opacity="0.44"/>
<circle cx="1199" cy="450" r="2.7" fill="#00d4ff" opacity="0.32"/>
<circle cx="1139" cy="63" r="2.3" fill="#00ff88" opacity="0.50"/>
<circle cx="54" cy="397" r="3.0" fill="#00ff88" opacity="0.35"/>
<circle cx="465" cy="511" r="1.6" fill="#dd44ff" opacity="0.33"/>
<circle cx="1368" cy="366" r="2.6" fill="#00d4ff" opacity="0.46"/>
<circle cx="1220" cy="451" r="1.4" fill="#ff00ea" opacity="0.41"/>
<circle cx="480" cy="12" r="2.7" fill="#00d4ff" opacity="0.27"/>
<circle cx="992" cy="476" r="2.4" fill="#dd44ff" opacity="0.21"/>
<circle cx="910" cy="61" r="2.8" fill="#ff6644" opacity="0.52"/>
<circle cx="939" cy="167" r="3.5" fill="#8844ff" opacity="0.40"/>
<circle cx="908" cy="418" r="3.6" fill="#00ff88" opacity="0.16"/>
<circle cx="963" cy="305" r="3.2" fill="#8844ff" opacity="0.47"/>
<circle cx="787" cy="369" r="2.6" fill="#8844ff" opacity="0.29"/>
<circle cx="1394" cy="249" r="1.0" fill="#8844ff" opacity="0.33"/>
<circle cx="260" cy="509" r="2.1" fill="#ff6644" opacity="0.47"/>
<line x1="818" y1="338" x2="224" y2="456" stroke="#dd44ff" stroke-width="0.5" opacity="0.04"/>
<line x1="185" y1="182" x2="245" y2="338" stroke="#00ff88" stroke-width="0.5" opacity="0.09"/>
<line x1="1349" y1="195" x2="1047" y2="107" stroke="#ff6644" stroke-width="0.5" opacity="0.07"/>
<line x1="152" y1="220" x2="231" y2="351" stroke="#ff00ea" stroke-width="0.5" opacity="0.10"/>
<line x1="854" y1="306" x2="62" y2="506" stroke="#dd44ff" stroke-width="0.5" opacity="0.12"/>
<line x1="850" y1="200" x2="670" y2="180" stroke="#8844ff" stroke-width="0.5" opacity="0.09"/>
<line x1="712" y1="29" x2="975" y2="363" stroke="#44ddff" stroke-width="0.5" opacity="0.07"/>
<polygon points="131,404 139,412 131,420 123,412" fill="none" stroke="#00ff88" stroke-width="1" opacity="0.25"/>
<polygon points="322,382 326,386 322,390 318,386" fill="none" stroke="#00ff88" stroke-width="1" opacity="0.14"/>
<polygon points="405,398 412,405 405,412 398,405" fill="none" stroke="#ff00ea" stroke-width="1" opacity="0.25"/>
<polygon points="684,205 689,210 684,215 679,210" fill="none" stroke="#dd44ff" stroke-width="1" opacity="0.18"/>
<polygon points="477,205 483,211 477,217 471,211" fill="none" stroke="#44ddff" stroke-width="1" opacity="0.11"/>
<text x="1384" y="508" text-anchor="end" fill="rgba(255,255,255,0.12)" font-family="monospace" font-size="10">Generert 10.04.2026 kl. 16:00 UTC</text>
</svg>